<?xml version="1.0"?>
<!DOCTYPE svg PUBLIC "-//W3C//DTD SVG 1.1//EN" "http://www.w3.org/Graphics/SVG/1.1/DTD/svg11.dtd">
<svg
	xmlns="http://www.w3.org/2000/svg"
	version="1.1"
	viewBox="0 0 256 64"
	width="256px"
	height="64px"
>
	<defs>
		<linearGradient
			id="grad"
			gradientUnits="userSpaceOnUse"
			spreadMethod="repeat"
			x1="0%"
			y1="0%"
			x2="32%"
			y2="100%"
		>
			<stop offset="0%" stop-color="#888" />
			<stop offset="50%" stop-color="#bbb" />
			<stop offset="100%" stop-color="#888" />
		</linearGradient>
	</defs>
	<rect
		x="0"
		y="0"
		width="256"
		height="64"
		fill="url(#grad)"
		stroke="black"
	/>
	<g fill="none" stroke="black">
		<line x1="0" y1="32" x2="256" y2="32" />
		<line x1="0" y1="48" x2="256" y2="48" />
		<line x1="0" y1="56" x2="256" y2="56" />
		<line x1="0" y1="60" x2="256" y2="60" />
		
		<line x1="128" y1="0" x2="128" y2="64" />
		
		<line x1="64" y1="32" x2="64" y2="64" />
		<line x1="192" y1="32" x2="192" y2="64" />
		
		<line x1="32" y1="48" x2="32" y2="64" />
		<line x1="96" y1="48" x2="96" y2="64" />
		<line x1="160" y1="48" x2="160" y2="64" />
		<line x1="224" y1="48" x2="224" y2="64" />
		
		<line x1="16" y1="56" x2="16" y2="64" />
		<line x1="48" y1="56" x2="48" y2="64" />
		<line x1="80" y1="56" x2="80" y2="64" />
		<line x1="112" y1="56" x2="112" y2="64" />
		<line x1="144" y1="56" x2="144" y2="64" />
		<line x1="176" y1="56" x2="176" y2="64" />
		<line x1="208" y1="56" x2="208" y2="64" />
		<line x1="240" y1="56" x2="240" y2="64" />
		
		<line x1="8" y1="60" x2="8" y2="64" />
		<line x1="24" y1="60" x2="24" y2="64" />
		<line x1="40" y1="60" x2="40" y2="64" />
		<line x1="56" y1="60" x2="56" y2="64" />
		<line x1="72" y1="60" x2="72" y2="64" />
		<line x1="88" y1="60" x2="88" y2="64" />
		<line x1="104" y1="60" x2="104" y2="64" />
		<line x1="120" y1="60" x2="120" y2="64" />
		<line x1="136" y1="60" x2="136" y2="64" />
		<line x1="152" y1="60" x2="152" y2="64" />
		<line x1="168" y1="60" x2="168" y2="64" />
		<line x1="184" y1="60" x2="184" y2="64" />
		<line x1="200" y1="60" x2="200" y2="64" />
		<line x1="216" y1="60" x2="216" y2="64" />
		<line x1="232" y1="60" x2="232" y2="64" />
		<line x1="248" y1="60" x2="248" y2="64" />
		
		<line x1="4" y1="62" x2="4" y2="64" />
		<line x1="12" y1="62" x2="12" y2="64" />
		<line x1="20" y1="62" x2="20" y2="64" />
		<line x1="28" y1="62" x2="28" y2="64" />
		<line x1="36" y1="62" x2="36" y2="64" />
		<line x1="44" y1="62" x2="44" y2="64" />
		<line x1="52" y1="62" x2="52" y2="64" />
		<line x1="60" y1="62" x2="60" y2="64" />
		<line x1="68" y1="62" x2="68" y2="64" />
		<line x1="76" y1="62" x2="76" y2="64" />
		<line x1="84" y1="62" x2="84" y2="64" />
		<line x1="92" y1="62" x2="92" y2="64" />
		<line x1="100" y1="62" x2="100" y2="64" />
		<line x1="108" y1="62" x2="108" y2="64" />
		<line x1="116" y1="62" x2="116" y2="64" />
		<line x1="124" y1="62" x2="124" y2="64" />
		<line x1="132" y1="62" x2="132" y2="64" />
		<line x1="140" y1="62" x2="140" y2="64" />
		<line x1="148" y1="62" x2="148" y2="64" />
		<line x1="156" y1="62" x2="156" y2="64" />
		<line x1="164" y1="62" x2="164" y2="64" />
		<line x1="172" y1="62" x2="172" y2="64" />
		<line x1="180" y1="62" x2="180" y2="64" />
		<line x1="188" y1="62" x2="188" y2="64" />
		<line x1="196" y1="62" x2="196" y2="64" />
		<line x1="204" y1="62" x2="204" y2="64" />
		<line x1="212" y1="62" x2="212" y2="64" />
		<line x1="220" y1="62" x2="220" y2="64" />
		<line x1="228" y1="62" x2="228" y2="64" />
		<line x1="236" y1="62" x2="236" y2="64" />
		<line x1="244" y1="62" x2="244" y2="64" />
		<line x1="252" y1="62" x2="252" y2="64" />
	</g>
</svg>